/* XPM */
static char *Self_UltraDefrag_SchedulerDlg_XPM[]={
/* Self_UltraDefrag_SchedulerDlg */
"32 32 8 1",
"      c None",
"0     c #00FF00",
"1     c #FF0000",
"2     c #FFFF00",
"3     c #C0C0C0",
"4     c #0000FF",
"5     c #00FFFF",
"6     c #800000",
"                                ",
" 000000000000000 11111111111111 ",
" 000000000000000 11111111111111 ",
" 000000000000000 11111111111111 ",
" 000000000000000 11111111111111 ",
"                                ",
" 22222222 33333333333333 000000 ",
" 22222222 33333333333333 000000 ",
" 22222222 33333333333333 000000 ",
" 22222222 33333333333333 000000 ",
"                                ",
" 444444444444444 22222222222222 ",
" 444444444444444 22222222222222 ",
" 444444444444444 22222222222222 ",
" 444444444444444 22222222222222 ",
"                                ",
" 55555555 11111111111111 666666 ",
" 55555555 11111111111111 666666 ",
" 55555555 11111111111111 666666 ",
" 55555555 11111111111111 666666 ",
"                                ",
" 000000000000000 33333333333333 ",
" 000000000000000 33333333333333 ",
" 000000000000000 33333333333333 ",
" 000000000000000 33333333333333 ",
"                                ",
" 11111111 44444444444444 222222 ",
" 11111111 44444444444444 222222 ",
" 11111111 44444444444444 222222 ",
" 11111111 44444444444444 222222 ",
" 11111111 44444444444444 222222 ",
"                                "};

